<svg xmlns="http://www.w3.org/2000/svg" xmlns:xlink="http://www.w3.org/1999/xlink" version="1.1" x="0px" y="0px" width="1189.55px" height="857.7px" viewBox="0 0 1189.55 857.7" enable-background="new 0 0 1189.55 857.7" xml:space="preserve"><style>.style0{fill:	#000000;}.lactation-loop{fill:	#dddddd;}.calf-arrow{fill:	#cac7cc;}.style10{fill-rule:	evenodd;clip-rule:	evenodd;fill:	#BEBFBD;}.style11{opacity:	0.1608;}.style12{opacity:	0.7882;}.style13{clip-rule:	evenodd;fill-rule:	evenodd;}.style14{opacity:	0.0902;}.style15{opacity:	0.8118;}.style16{opacity:	0.7686;}.style17{opacity:	0.4784;}.style18{opacity:	0.5294;}.style19{opacity:	0.1882;}.style2{fill:	#FFFFFF;}.style20{fill-rule:	evenodd;clip-rule:	evenodd;fill:	#A98F54;}.calf-output-arrow{fill-rule:	evenodd;clip-rule:	evenodd;fill:	#aaa5ad;}.style22{fill-rule:	evenodd;clip-rule:	evenodd;fill:	#DFDFDF;}.style23{opacity:	0.1686;}.style24{opacity:	0.349;}.style25{opacity:	0.302;}.style26{fill-rule:	evenodd;clip-rule:	evenodd;fill:	#B20000;}.inner-arrows{fill-rule:	evenodd;clip-rule:	evenodd;fill:	#dddddd;}.pregnancy-loop{fill:	#aaa5ad;}.bull-arrow{fill:	#cac7cc;}.cow-arrow{fill-rule:	evenodd;clip-rule:	evenodd;fill:	#cac7cc;}.style5{fill:	#cac7cc;}.style6{fill-rule:	evenodd;clip-rule:	evenodd;fill:	#FFFFFF;}.milk-circle{fill:	#cac7cc;clip-rule:	evenodd;fill-rule:	evenodd;}.calf-circle{fill:	#cac7cc;clip-rule:	evenodd;fill-rule:	evenodd;}.style8{fill-rule:	evenodd;clip-rule:	evenodd;fill:	#121212;}.style9{opacity:	0.102;}</style><g><g><g><path d="M1123.86 690.32l-17.64 38.97l-19.37-39.24c-38.2 8.23-66.84 42.19-66.84 82.86 c0 46.82 37.96 84.78 84.77 84.78c46.82 0 84.77-37.96 84.77-84.78C1189.55 732.66 1161.48 698.98 1123.86 690.32z" class="style0"/></g></g><g><g><path d="M1120.47 666.99c-0.41-244.99-199.9-249.09-257.19-249.14v30.55c40.84 0.19 228.04 5.79 228.48 218.59 h-13.72l28.09 56.79l26.39-56.79H1120.47z" class="lactation-loop"/></g></g><g><path d="M1167.32 796.76c-0.12-0.74 0.34-3.1-0.87-5.41c-1.33-2.41-1.57-2.62-1.57-2.62s1.6 1.2 1.75 1.57 c0.22 0.54-0.06-1.1-0.52-1.4c-0.44-0.43-0.89-0.7-1.74-1.57c-0.97-0.95-1.51-1.86-1.57-2.96c0.06-0.62-0.12-3.52-0.35-4.71 c-0.14-1.36 0.22-2.45 0.35-3.84c0.24-1.52 0.47-6.83 0.7-7.5c0.13-0.79 0.13-12.78 0-14.65c-0.08-0.64-0.39-1.21-0.74-1.67 c-0.04-0.47-0.08-0.85-0.13-1.12c-1.08-4.52-1.27-5.82-11.26-5.97c-2.27-0.22-4.92-0.17-8.1 0.04c-0.94 0.05-1.81 0.13-2.62 0.22 c-7.67 0.67-10.07 1.17-13.42 1.7c-3.06 0.43-18.64-0.95-20.76-0.87c-0.69-0.08-1.64-0.2-2.62-0.35 c-2.66-0.44-5.75-1.22-5.75-1.22s-9.41-2.05-17.79-1.74c-1.14 0-2.24-0.06-3.31-0.17c-4.87-0.5-9.56-2.21-10.48-2.55 c0.27-0.19 0.48-0.35 0.54-0.41c0.02-0.35 0-0.87 0-0.87l0.52-0.17l0.17-0.87l-0.35-0.52c0 0 0.13-0.63 0-0.87 c-0.06-0.3 0.17-0.52 0.17-0.52l0.17-0.17c0 0 0.59-0.24 0.52-0.52c0.07-0.26-0.38-0.45-0.87-0.52c-0.42-0.11-0.35-0.35-0.35-0.35 s-0.53-0.21-1.57-0.17c-0.95-0.04-0.5 0.15-0.7 0.17c-0.35 0.15 0-0.35 0-0.35s-0.62-0.04-1.57 0.35 c-0.09 0.03-0.16 0.06-0.23 0.09c-0.13-0.12-0.3-0.25-0.47-0.26c-0.38 0.02-1.59 0.15-1.92 0.35c-0.4 0.04-1.37 0.16-1.75 0.52 c-0.35 0.36-1.2 1.09-1.74 1.22c-0.28 0.07-0.53 0.52-0.84 1c-0.49-0.02-1.01 0-1.6 0.05v-0.7l-1.05 0.17h-0.87l0.17-0.52 l-1.74 0.35l-0.7-0.17l-1.05 0.52l-0.17 1.57c0 0-1.27 0.69-1.05 1.05c0.33 0.19-0.17 0.87-0.17 0.87 c-0.86 0.59-2.97 3.14-2.97 3.14c-0.56 1.2-0.03 1.48-0.87 2.79c-0.84 1.38-0.05 1.38-0.7 1.92c-0.69 0.67-0.63 0.9-1.74 2.09 c-0.79 0.64-0.85 1.46-2.09 2.62c-1.92 1.91-2.67 2.67-2.79 2.96c-0.42 0.51-1.33 2.51-0.52 3.31c0.65 0.65 0.83 0.83 1.57 1.05 c0.71 0.14 0.23 1.11 1.4 1.74c0 0 1.5 0.4 2.09 0.35c0 0 0.5 0.6 1.22 0.35c0.73-0.12 1.64-0.12 2.27-0.7 c0.46-0.51 1.01-1.6 1.92-1.57c0.12 0 0.24-0.04 0.37-0.09c0.53 0.32 1.04 0.71 1.38 0.79l1.57 0.17c0 0 0.68-0.72 1.4-0.52 c0.74 0.17 1.28 1.26 2.09 0.87c0.64-0.34 1.37-1.07 1.92-0.52c0 0 2.54 0.54 5.23 2.44c1.12 0.65 0.94 1.19 1.92 3.31 c0.84 2.24 4.84 8.6 5.06 10.12c0 0.22 0.08 0.66 0.17 1.22c0.04 0.11 0.08 0.22 0.12 0.34c0.07 0.27 0.14 0.56 0.23 0.88 c0.74 2.14 2.04 5.12 4.01 7.15c0.07 0.08 4.26 3.13 4.71 4.36c1.98 5.6 0.34 6.88 0.52 9.77c0.18 2.92 0.19 2.55 0.17 4.01 c0.01 1.46 0.83 3.05 0.52 3.84c-0.24 0.74-1.22 5.76-1.22 5.76s-1.41 1.29-1.85 2.58l-0.07-0.13c0 0-0.95 1.05-1.57 1.92 c-0.71 1.13-1.4 1.92-1.4 1.92s0.14 0.48 0.87 0.17c0.72-0.42 1.5-2.44 1.74-1.57c0.29 0.74-2.29 1.69-1.92 2.44 c0.35 0.71 3.88 0.11 4.88 0.17c1.02 0.03 3.1-0.38 4.01-1.57c0 0-0.66-1.13-0.35-1.74c0 0-0.76-0.82 0.17-1.05 c0.83-0.36 1.26-0.74-0.17-2.09c-0.33-0.36 0.72-3.54 0.7-5.06c0.02-1.41 1.65-2.87 1.74-4.53c0.23-1.26 0.56-3.12 0.35-5.23 c-0.23-1.06-0.77-2.52 1.52-6.21l0.05 0.11l1.57 7.5c0 0-0.97 0.87 1.74 3.49c0.84 0.94 2.66 4.39 2.27 6.45 c-0.18 1.02-0.61 2.16-0.99 3.15l-0.06-0.54c0 0-3.21 4.29-2.62 4.88c0.97 0.97 4.36 0.17 4.36 0.17s1.88 0.25 3.66-1.22l0.35-0.7 l-0.04-0.44c0.02-0.03 0.03-0.05 0.04-0.08c0.24-0.68 0.08-1.14-0.16-1.51c-0.01-0.04-0.01-0.06-0.01-0.06l0 0.05 c-0.36-0.53-0.91-0.85-0.7-1.27c0.37-0.65 1.31-0.15 1.05-1.4c-0.15-1.29-1.45-1.31-1.74-2.96c-0.33-1.58-0.39-4.66-0.35-5.23 c-0.02-0.57 0.06-2.4-0.17-3.31c-0.31-0.82-1.57-2.97-1.57-2.97l-0.67-8.43c2.54-0.76 5.45-1.38 6.77-1.51 c2.33-0.13 12.14 0.6 15.52 1.39c0.72 0.13 1.28 0.19 1.75 0.18c0.01 0 0.01 0 0.02 0c0.05 0 0.11 0 0.16 0c0.02 0 0.04 0 0.06 0 c0.04 0 0.07 0 0.11-0.01c0.04 0 0.09-0.01 0.13-0.01c0.01 0 0.02 0 0.03 0c1.36-0.15 2.17-0.8 5.06-1.2 c0.01-0.03 0.02-0.06 0.03-0.08c0.21-0.03 0.43-0.06 0.67-0.09c0.25 0.03 0.48 0 0.7 0c0.33-0.29 1.85-0.98 3.64-1.7 c-1.75 0.83-3.64 1.7-3.64 1.7c0.62 0.3 1.27 0.63 1.92 0.87c0.23 0.43 0.66 1.4 0.52 2.27c-0.19 1.1-0.38 1.73 0 1.92 c0.35 0.36 0.9 0.27 1.05-0.52c0.21-0.66 0.03-1.57 0.17-2.09c0.18-0.45 0.43-0.65 0.52-0.7c0 0 1.15-0.05 0.87 0.87 c-0.45 0.89 0 2.27 0 2.27s0.82 1.17 0.87 0.52c-0.05-0.81 0.68-2.08 0.7-2.79c-0.02-0.74 1.74-1.44 1.75-0.35 c-0.04 0.16-0.03 0.48-0.17 1.05c-0.14 1.1-0.17 1.74-0.17 1.74s0.4 1.18 0.87 0.35c0.62-0.99 0.44-1.17 0.52-1.74 c-0.09-0.43 0.44-1.42 0.52-1.74c0.36-0.02 0.65-0.08 0.87-0.17c0.32 0.07 0.52 0.25 0.52 0.7c0 1.07 0.52 1.92 0.52 1.92 s0.74 0.6 0.87-0.17c0.23-0.68 0.05-1.4 0.17-1.92c0.24-0.57 0.87-1.22 0.87-1.22s0.28-0.12 0.69-0.31 c1.33 2.48 2.45 6.12 2.28 11.3c-0.07 3.76-1.6 7.83-2.44 9.07c0 0-0.97 3.48-2.09 4.19c0 0-0.1 0.17-0.27 0.44l-0.08 0.08 c0 0-2.35 2.41-2.27 2.97c-0.08 0.53 1.38 0.71 2.62 0.87c1.3 0.2 2.39-0.52 2.97-0.7c0.52-0.19 1.22-0.52 1.22-0.52 c0.01-0.26 0-0.51-0.02-0.74c0.3-1.28 0.37-2.75 0.37-2.75s2.04-1.45 2.09-1.92c-0.06-0.62-0.78-2.07-0.35-2.62 c0.26-0.48 3.78-8.11 4.56-10.65c0.21 0.35 0.38 0.7 0.5 1.06c0.81 2.59 1.05 12.14 0 14.83c-0.18 0.41-0.95 1.56-1.55 2.44 c-0.57 0.64-2.48 2.85-2.46 3.84c-0.03 1.02 1.05-0.17 1.05-0.17l1.22-1.22l-1.05 2.09c0 0 1.97 0.25 2.97 0.35 c1.05 0.16 2.27-0.35 2.27-0.35c0.59-0.7 0.49-1.52 0.41-1.89l0.47 0.15c-0.02-0.44-0.12-0.88-0.18-1.57 c-0.7-4.09 1.1-0.47 1.22-2.09c0.21-0.95-0.88-2.51-0.35-5.58c0.32-2.64 0.53-5.33 0.52-6.28c0.07-0.9 0.55-4.44 1.22-5.93 c0.7-1.32-0.69-1.62-1.22-3.84c-0.74-2.95 0.35-4.13 0.52-6.1c0.29-6.61 3-5.85 4.01-6.8c3.25-3.41 5.32-9.22 6.45-14.88 c0.05 2.54 0.22 5.26-0.34 7.2c-0.73 2.57-0.54 3.11-0.35 6.28c0.17 3.01 0.53 5.74 0.52 6.28c0 0 0.01 0.55-0.35 2.44 c-0.37 1.74-0.92 0.19 0 3.14c0.9 3.05 0.81 3.78 0.35 5.58c-0.39 1.44-0.5 1.7-0.52 1.74c0.09-0.15 1.71-3.05 1.74-5.23 c0 0 0.06-1.31-0.17-1.57c-0.13-0.29 1.23 1.53 1.05 3.49c0 0-0.54 3.76 0.17 4.71c0.56 1.05 1.05 1.74 1.05 1.74 s-0.67-1.78-0.52-2.79c0.21-0.99 0.7-2.44 0.7-2.44s0.15 1.36 0 1.92c-0.21 0.71-0.17 1.57-0.17 1.57s0.51 0.23 0.7-1.05 c0.36-1.26 0.7-1.92 0.7-1.92l0.17 0.87C1166.45 798.33 1167.39 797.48 1167.32 796.76z" class="style2"/><path d="M1161.05 799.02C1161.04 799.02 1161.04 799.03 1161.05 799.02 C1161.04 799.03 1161.04 799.03 1161.05 799.02z" class="style2"/></g></g><g><g><g><path d="M612.96 666.92c-0.43-76.57-59.73-97.2-132.97-97.2c-74.5 0-129.02-0.02-129.02-58.02 c0-11.5 1.5-207.51 1.5-207.51l-17.5-0.12c0 0-4.5 199.08-4.5 207.33c0 80 88.65 86.98 152.65 86.98 c63.59 0 100.65 16.02 101.12 68.36l-12.78-0.08l27.76 57.12l25.39-56.79L612.96 666.92z" class="bull-arrow"/></g></g><g><g><path d="M536.64 569.75c0 0 16.85-1.03-56.65-1.03 S358.47 553.7 358.47 512.7c0-11.5-7-208.51-7-208.51l-16.5-0.12c0 0 9.66 199.08 9.66 207.33c0 71.83 96.15 71.65 136.48 71.65 c64 0 91.19 4.7 91.19 4.7L536.64 569.75z" class="cow-arrow"/></g></g><g><g><path d="M600.54 271.94l-28.1 56.96l12.87 0v147.35c0 84.5-20.81 92.47-105.31 92.47 c-73.5 0-122.02-15.02-122.02-56.02c0-11.5-8.5-208.51-8.5-208.51s1.5 196.01 1.5 207.51c0 58 54.52 58.02 129.02 58.02 c34.29 0 65.53 4.53 89.1 17.2c33.92-13.48 44.55-43.68 44.55-108.67V328.89l11.95 0L600.54 271.94z" class="style5"/></g></g><g><g><path d="M616.86 690.32l-17.64 38.97l-19.37-39.24c-38.2 8.23-66.84 42.19-66.84 82.86 c0 46.82 37.96 84.78 84.77 84.78s84.77-37.96 84.77-84.78C682.55 732.66 654.48 698.98 616.86 690.32z" class="style0"/></g></g><g><g><path d="M645.56 753.22c-1.67-1.5-4.42-0.75-7.58-0.75 c-3.17 0-6.92 1.92-9.08 1.92c-2.17 0-4.67-6.08-4.67-6.08s-3.33-9.25-11.5-9.25c-8.17 0-13.25 6.5-13.25 6.5 s-4.42-2.42-5.92-3.42s-3.17-2.92-5.83-2.58c-2.67 0.33-2 5.25-2 5.25s-0.33 4.25 2.67 6.75s6.58 1 6.58 1l0.33 5.75 c0 0-1.92 0.58-1.75 2.75c0.17 2.17 1.92 2.25 1.92 2.25l0.08 8.08c0 0-3-0.92-9.17-1.25c-6.17-0.33-16.17 7.17-16.17 7.17 s-3.92 6.25-6.75 8.42c-2.83 2.17-9.08 3.83-10.75 5.83c-1.67 2-2.17 7-2.5 9c-0.33 2-1.75 3.17-1.75 5c0 1.83 2.58 5 5.25 6 c2.67 1 15-1.25 15-1.25s3.33 5.17 6.5 7.17c3.17 2 5.75 3.25 10.58 3.25s6.92-2.17 6.92-2.17l19.75 1.25c0 0 7 5.5 12.25 4.75 s8.75-4.5 10.25-7.75s3.25-19.75 2-23.75s-1.75-9-1.75-9s0.75-2 0.5-4.5s-2.33-3.67-3.33-5.5c-1-1.83-1-4.92-2.17-6.25 c-1.17-1.33-3.33-2.42-3.5-3.25c-0.17-0.83 4.25-0.5 4.25-0.5s0.42 2.5 4.75 2.5c4.33 0 10.5-6.58 11.17-8.25 C647.56 756.63 647.22 754.72 645.56 753.22z" class="style6"/></g></g></g><g><g><g><path d="M358.97 304.07l-30 0.12c0 0 0 197.01 0 208.51c0 41-41.52 56.02-115.02 56.02 c-73.26 0-143.51 21.64-143.97 98.27H57.68l28.39 56.79l26.09-56.79H98.7c0.46-52.55 48.44-68.61 112.14-68.61 c64 0 148.15-6.98 148.15-86.98C358.98 503.16 358.97 304.07 358.97 304.07z" class="calf-arrow"/></g></g><g><g><path d="M103.86 690.32l-17.64 38.97l-19.37-39.24C28.64 698.28 0 732.25 0 772.92 c0 46.82 37.95 84.78 84.77 84.78c46.82 0 84.77-37.96 84.77-84.78C169.55 732.66 141.48 698.98 103.86 690.32z" class="style0"/></g></g><g><g><path d="M158.04 739.24c0 0-14.17-33.35-51.79-44.19l-20.03 44.24l-22.37-45.31 c-19.71 4.84-29.51 16.08-29.51 16.08s7.45 18.46 17.11 33.13c9.67 14.67 21.79 14.29 22.66 17.49c0.87 3.2 2.03 19.5 2.03 19.5 s0.99 8.11 5.21 7.82c4.22-0.29 3.55-9.39 3.55-9.39s0.55-13.95 2.44-16.13c1.89-2.18 3.05 0.29 3.93 3.35 c0.87 3.05 1.58 10.06 1.58 10.06s1.21 12.27 5.28 12.71c4.07 0.44 5.22-6.77 5.22-6.77s-0.44-15.47 0.29-17.21 c0.73-1.75 2.33-0.73 3.35 1.31c1.02 2.04 2.24 14.92 2.24 14.92s-0.29 9.37 3.49 9.52s4.68-6.2 5.55-9.83 c0.87-3.64 1.75-9.91 1.75-9.91s3.56-4.84 5.3-4.55c1.75 0.29-0.56 11.06-0.56 11.06l-1.83 9.24c0 0-0.44 5.5 3.64 5.8 s4.03-2.64 4.03-4.96c0-2.33 1.67-3.79 2.1-9.17s6.8-11.45 9.71-13.63c2.91-2.18 3.62-1.24 10.9-8.8 C161.06 747.52 158.04 739.24 158.04 739.24z" class="style2"/></g></g><g><g><path d="M89.04 774c-0.67-2.4-2.5-4.42-3.03-5.89 c-0.53-1.47-2.3-1.1-2.3-1.1l-1.92 7.39l-1.96-5.42c0 0-1.59-3.02-3.74-3.81c-2.15-0.79-4.42-0.54-6.6 1.19s-2.05 2.05-3.09 3.58 c-1.04 1.53-1.72 2.61-3.59 4.75s-4.36 4.43-6.93 6.34c-2.56 1.9-12 4.59-14.24 7.81c-2.24 3.22-4.24 5.28-5.13 9.21 c-0.89 3.93 0.92 7.45-0.49 9.28c-1.41 1.84-7.8 2.58-11.94 2.6c-4.14 0.02-12.51 0.08-12.51 0.08s7.03 14.43 18.75 24.18 c11.71 9.75 23.24 13.77 23.24 13.77s9.08-14.26 14-20.62c4.92-6.36 5.51-11.52 6.92-14.13c1.41-2.61 5.72-8.97 8.15-13.66 c2.44-4.68 3.43-12.39 4.07-15.01S89.72 776.4 89.04 774z" class="style6"/></g></g></g><g><g><g><ellipse cx="340.61" cy="226.97" rx="84.77" ry="84.78" class="calf-circle"/></g></g><g><g><g><path d="M388.32 198.18c-1.67-1.5-4.42-0.75-7.58-0.75 s-6.92 1.92-9.08 1.92c-2.17 0-4.67-6.08-4.67-6.08s-3.33-9.25-11.5-9.25s-13.25 6.5-13.25 6.5s-4.42-2.42-5.92-3.42 s-3.17-2.92-5.83-2.58c-2.67 0.33-2 5.25-2 5.25s-0.33 4.25 2.67 6.75s6.58 1 6.58 1l0.33 5.75c0 0-1.92 0.58-1.75 2.75 c0.17 2.17 1.92 2.25 1.92 2.25l0.08 8.08c0 0-3-0.92-9.17-1.25c-6.17-0.33-16.17 7.17-16.17 7.17s-3.92 6.25-6.75 8.42 c-2.83 2.17-9.08 3.83-10.75 5.83s-2.17 7-2.5 9s-1.75 3.17-1.75 5c0 1.83 2.58 5 5.25 6s15-1.25 15-1.25s3.33 5.17 6.5 7.17 c3.17 2 5.75 3.25 10.58 3.25c4.83 0 6.92-2.17 6.92-2.17l19.75 1.25c0 0 7 5.5 12.25 4.75s8.75-4.5 10.25-7.75 s3.25-19.75 2-23.75s-1.75-9-1.75-9s0.75-2 0.5-4.5s-2.33-3.67-3.33-5.5c-1-1.83-1-4.92-2.17-6.25 c-1.17-1.33-3.33-2.42-3.5-3.25c-0.17-0.83 4.25-0.5 4.25-0.5s0.42 2.5 4.75 2.5s10.5-6.58 11.17-8.25 C390.32 201.6 389.99 199.68 388.32 198.18z" class="style8"/></g></g><g class="style9"><g><path d="M365.49 196.77l-7.8-0.4l2.6 5.6l0.2 7.93l-11.2-1.93l3 12.4 c0 0-4.6 0.6-5.4 0.6c-0.8 0 5 2.4 5 2.4l-0.8 3.6l-5-1.6l-4.6 1.8v4l3.2 4l6.4-0.6l5.8-4.2l10.6-12.8l2.2-8.2c0 0-0.2-8 0.2-11 C370.29 195.37 365.49 196.77 365.49 196.77z" class="style6"/></g></g><g><g><polygon points="360.69,189.37 351.89,186.37 348.49,186.57 344.69,193.57 350.09,198.77 354.29,196.37 357.89,193.57 361.69,192.97" class="style10"/></g></g><g><g><polygon points="375.49,248.77 369.69,246.77 362.89,249.97 358.89,255.57 358.96,266.87 362.99,269.04 368.39,269.33 375.19,265.37 378.62,258.27" class="style10"/></g></g><g><g><path d="M336.09 245.77l-6.4-5.2l-9.2-1.4c0 0-3-0.6-3.8 0.6s-4 4-4 4 l-3.2 0.2v-4.6h4.2l5.2-6.2l6-8.2l3-2.2l-1.2-1l-4.4 2.2l-4.2 0.2l-5.43-0.27l-3.07 4.63l-4.5 4.03l-8.3 3.8l-2.37 4.4l-1.1 6.8 l2.33-0.4l0.3 1.23l5.83-0.63l0.77 7.93l9.27-0.97l3.43 3.9l4.63 4l6.43 2.53l6.37-0.8l5.6-8.8L336.09 245.77z" class="style10"/></g></g><g class="style11"><g><polygon points="345.64,225.4 342.97,225.73 340.97,230.73 347.64,230.73 350.64,230.4 350.97,225.4" class="style10"/></g></g><g class="style12"><g><polygon points="370.99,229.52 371.49,222.52 372.74,216.77 365.99,221.52 367.49,229.02 366.24,231.77 365.24,239.77 359.74,237.02 360.74,247.52 354.24,249.52 353.99,256.52 349.99,262.52 345.74,262.52 345.99,252.02 344.49,238.77 342.99,233.27 336.24,230.27 329.24,239.77 337.49,246.77 338.24,258.27 341.24,258.52 342.74,264.02 349.99,264.77 357.49,266.52 358.49,255.27 363.24,249.52 368.49,246.02 368.74,237.27 369.99,233.02 371.74,239.02 372.99,237.77" class="style13"/></g></g><g class="style14"><g><polygon points="355.31,223.73 352.97,219.73 348.97,221.73 352.31,222.73 353.22,227.07 352.22,232.07 344.31,232.07 344.97,234.73 351.64,234.73 356.97,229.73 363.31,222.73" class="style10"/></g></g><g class="style15"><g><polygon points="355.49,195.57 351.89,199.57 353.49,203.17 348.89,201.97 347.09,202.57 347.69,204.97 352.49,206.77 356.69,205.37 357.29,198.77" class="style13"/></g></g><g class="style16"><g><polygon points="341.09,198.77 338.89,200.97 341.49,204.77 340.69,208.97 338.09,206.57 337.89,203.97 336.09,205.97 338.09,208.77 338.89,218.37 342.89,213.17 343.49,201.37 344.69,191.97" class="style13"/></g></g><g class="style17"><g><polygon points="362.69,207.57 366.09,206.37 363.69,204.57 361.49,207.17 362.09,208.37 364.29,210.37 365.69,209.97 365.29,207.57" class="style10"/></g></g><g class="style18"><g><polygon points="350.69,221.37 348.89,221.77 348.49,224.17 350.09,224.37 351.09,223.37" class="style10"/></g></g><g class="style19"><g><path d="M331.24 245.27h5l-7.5-5.25l-5.75-1l-4.25-0.25l-4.5 5.5l-2.5 4.75l1.25 2.5 l-1 3.25c0 0-0.34-0.04-0.88-0.1c-1.83-0.2-5.87-0.65-5.87-0.65l-7 1.75l8.25 1h6.25l6.75 5.75l6.75 3.5l-4-2.75l-4.25-5.75 l-1.5-8l4.75-3.5L331.24 245.27z" class="style13"/></g></g><g><g><polygon points="295.66,250.87 297.26,251.67 302.69,250.93 301.66,247.26 296.85,248.46 295.66,246.46 293.06,247.87 291.66,248.87 293.06,252.87 296.46,255.67 302.06,255.07 302.66,252.07 297.09,252.4" class="style20"/></g></g></g><g><g><path d="M378.72 33.67c-42.25-3.87-27.74-1.79-27.74-1.79 c-0.65 7.43 6.85 16.45 2.91 24.61c51.59-0.41 64.32 37.01 48.81 57.99l23.34 17.26C454.34 93.46 428 38.18 378.72 33.67z" class="calf-output-arrow"/></g></g><g><g><polygon points="399.06,104.83 392.98,150.1 436.05,132.18" class="calf-output-arrow"/></g></g></g><g><g><g><ellipse cx="856.61" cy="226.97" rx="84.77" ry="84.78" class="milk-circle"/></g></g><g><g><g><path d="M879.39 206.99c-1.71-2.28-14.91-10.07-14.91-10.07l-1.33-2.66 l0.76-1.52l-14.25-0.19l1.52 2.28c0 0-0.29 1.14-1.71 1.71c-1.42 0.57-10.64 4.75-11.4 5.89s-7.6 32.2-8.26 34.38 c-0.67 2.18-0.38 14.44 0.47 17.09c0.86 2.66 2 6.84 3.99 8.74c3.99 2.18 19.09 3.61 20.8 3.61s2.66-3.7 4.75-3.7 c2.09 0 2.56 3.13 5.22 3.13c2.66 0 10.73-1.8 12.92-3.42c2.18-1.62 4.56-4.75 5.6-10.35S881.1 209.27 879.39 206.99z M845.58 210.31c-0.29 1.14-1.42 12.16-1.42 12.16s0 3.7-2.47 3.42c-2.47-0.29-2.18-3.99-2.18-3.99s1.04-12.63 1.99-14.34 c0.95-1.71 0.95-2.85 2.66-3.04c1.71-0.19 2.18 0.47 2.37 1.52C846.72 207.08 845.86 209.17 845.58 210.31z" class="style22"/></g></g><g class="style23"><g><path d="M859.98 256l-3.82 3.34l-1.67-48.88l-1.91-12.4l-4.29 0.24l-4.53 26.95 l-8.82 5.72l-2.15-4.29l-3.34 17.17c0.05 4.06 0.35 8.57 0.83 10.06c0.86 2.66 2 6.84 3.99 8.74c3.99 2.18 19.09 3.61 20.8 3.61 s2.66-3.7 4.75-3.7c1.83 0 2.42 2.4 4.32 3l0.6-5.25L859.98 256z" class="style13"/></g></g><g class="style23"><g><path d="M864.15 199.67l-11.92-0.3c0 0 0.89 11.33 2.09 11.33s24.44-1.19 24.44-1.19 L864.15 199.67z" class="style13"/></g></g><g class="style24"><g><path d="M841.41 204.22l-2.04 6.81l-0.51 9.2l0.68 6.98l0.63-2.28 c-0.8-1.18-0.67-3.03-0.67-3.03s1.04-12.63 1.99-14.34c0.95-1.71 0.95-2.85 2.66-3.04c0.19-0.02 0.37-0.03 0.53-0.03l1.16-3.16 L841.41 204.22z" class="style13"/></g></g><g class="style25"><g><path d="M879.39 206.99c-1.26-1.68-8.74-6.34-12.6-8.68l-2.94-1.45 c0 0 12.41 8.23 14.44 10.13s2.28 7.22 2.66 10.64c0.38 3.42 1.65 18.87 1.27 23.55c-0.38 4.68 1.71 10.09-2.44 16.33 c-4.02 6.06-9.94 6.47-12.85 6.21c-2.91-0.25-2.47-1.58-7.03-1.97c-4.56-0.38-2.55 3.03-5.21 2.91 c-2.66-0.13-16.4-0.57-19.82-3.35c-3.42-2.79-3.93-18.49-3.29-24.06c0.63-5.57 5.57-30.01 6.46-32.54 c0.89-2.53 4.05-3.8 4.05-3.8s4.43-2.28 5.57-1.39s-3.67 2.91-4.94 4.94c-0.22 0.35-0.46 1.11-0.71 2.11 c0.53-1.15 0.82-1.9 2.17-2.05c1.71-0.19 2.18 0.47 2.37 1.52c0.19 1.04-0.66 3.13-0.95 4.27s-1.42 12.16-1.42 12.16 s0 3.7-2.47 3.42c-2.47-0.29-2.18-3.99-2.18-3.99s0.06-0.75 0.17-1.89c-0.17 1.18-0.26 1.93-0.26 1.93s-0.38 8.1 3.17 9.37 c3.55 1.27 6.46-1.01 7.34-3.17c0.89-2.15 3.17-15.2 3.17-19.63s-1.52-8.86-3.17-10.51c-0.5-0.5-1.11-0.76-1.71-0.91 c-2.96 1.32-9.49 4.39-10.13 5.34c-0.76 1.14-7.6 32.2-8.26 34.38c-0.67 2.18-0.38 14.44 0.47 17.09c0.86 2.66 2 6.84 3.99 8.74 c3.99 2.18 19.09 3.61 20.8 3.61s2.66-3.7 4.75-3.7c2.09 0 2.56 3.13 5.22 3.13c2.66 0 10.73-1.8 12.92-3.42 c2.18-1.62 4.56-4.75 5.6-10.35S881.1 209.27 879.39 206.99z" class="style13"/></g></g><g class="style24"><g><path d="M863.09 196.86c0 0-7.85 0.13-7.85-0.76c0-0.89 6.96-0.89 6.96-1.65 s-4.05-0.38-4.05-0.38l-7.4-1.51l-0.09 0l-0.69 0.44l1.22 1.83c0 0-0.29 1.14-1.71 1.71c-0.38 0.15-1.33 0.57-2.51 1.11 c1.18 0.31 2.33 0.71 3.41 1.22l1.19-0.24l6.71 0.38c0 0 5.07 0.25 5.57-0.89C864.35 196.98 863.09 196.86 863.09 196.86z" class="style13"/></g></g><g><g><polygon points="862.48,191.03 862.58,188.56 851.37,188.18 851.09,190.75 850.52,191.41 850.33,192.65 863.24,192.74 863.34,191.32" class="style26"/></g></g></g><g><g><path d="M713.5 135.41c-8.9-1.68-11.69-13.08-18.05-16.97 c0 0 6.95-12.91-15.05 23.37c-25.66 42.31 3.13 96.35 50.71 96.35v-29.03C705.01 209.13 682.5 176.65 713.5 135.41z" class="inner-arrows"/></g></g><g><g><polygon points="725.52,200.46 725.52,246.47 765.54,222.49" class="inner-arrows"/></g></g><g><g><path d="M837.89 351.02c-0.44 26.09-33.29 48.06-74 16.37 c-1.83 8.87-0.02 11.47-4.02 17.77c0 0 5.22 9.34 9.86 15.44c41.14 10.35 96.56-12.01 97.18-49.1L837.89 351.02z" class="inner-arrows"/></g></g><g><g><polygon points="851.82,316.81 829.13,356.46 875.12,357.23" class="inner-arrows"/></g></g><g><g><path d="M938.61 51.31c-36.19-18.52-96.56 12.01-97.18 49.1l29.02 0.49 c0.44-26.09 33.29-47.18 76.64-19.84C944.81 75.69 941.61 55.09 938.61 51.31z" class="inner-arrows"/></g></g><g><g><polygon points="833.22,94.69 856.52,135.11 879.21,95.46" class="inner-arrows"/></g></g><g><g><path d="M984.69 214.08l-0.49 29.02c26.09 0.44 48.06 33.29 16.37 74.01 c8.87 1.83 11.47 13.27 17.77 17.27c0 0 5.09 18.03 15.44-23.11C1044.13 270.13 1021.77 214.7 984.69 214.08z" class="inner-arrows"/></g></g><g><g><polygon points="949.99,229.17 989.64,251.86 990.41,205.87" class="inner-arrows"/></g></g></g><g><g><g><path d="M751.16 399.66l-24.13-92.33l-10.61 8.69L504.75 70.45l0.08-0.06c-0.39-0.42-0.8-0.82-1.19-1.23 l-0.18-0.21l-0.01 0.01C462.61 26.47 405.22 0 341.64 0C217.7 0 117.22 100.48 117.22 224.44S217.7 448.87 341.64 448.87 c63.9 0 121.55-26.73 162.42-69.59l-59.7 26.54l16.28-62.39c-30.46 30.47-72.52 49.33-119 49.33 c-92.96 0-168.31-75.36-168.31-168.33S248.68 56.11 341.64 56.11c46.78 0 89.09 19.09 119.6 49.9l211.72 245.61l-10.29 8.43 L751.16 399.66z" class="pregnancy-loop"/></g></g></g><g><g><g><path d="M864.03 446.66l0.5-28.8c24.08-0.29 57.87 0.29 93.01 8.42c74.71-36.43 126.18-113.12 126.18-201.84 C1083.73 100.48 983.25 0 859.31 0C795.72 0 738.33 26.47 697.5 68.96l-0.01-0.01l-0.18 0.21c-0.4 0.41-0.8 0.82-1.19 1.23 l0.08 0.06L484.53 316.02l-10.61-8.69l-24.13 92.33l88.5-39.61l-10.29-8.43l211.71-245.6c30.5-30.81 72.82-49.91 119.6-49.91 c92.96 0 168.31 75.36 168.31 168.33s-75.36 168.33-168.31 168.33c-46.48 0-88.55-18.86-119-49.33l16.28 62.39l-59.7-26.54 c40.87 42.87 98.52 69.59 162.42 69.59c8.82 0 17.52-0.53 26.08-1.52C876.44 446.78 869.11 446.68 864.03 446.66z" class="lactation-loop"/></g></g></g></svg>