<svg xmlns="http://www.w3.org/2000/svg" xmlns:xlink="http://www.w3.org/1999/xlink" version="1.1" x="0px" y="0px" width="769.76px" height="709.2px" viewBox="0 0 769.76 709.2" enable-background="new 0 0 769.76 709.2" xml:space="preserve"><style>.problem-circle{fill-rule:	evenodd;clip-rule:	evenodd;fill:	#000000;}.style1{fill:	#FFFFFF;}.main-loop{fill-rule:	evenodd;clip-rule:	evenodd;fill:	#cac7cc;}.style10{fill-rule:	evenodd;clip-rule:	evenodd;fill:	#4A4C48;}.style2{fill-rule:	evenodd;clip-rule:	evenodd;fill:	#FFFFFF;}.style3{fill:	#cac7cc;clip-rule:	evenodd;fill-rule:	evenodd;}.style4{fill-rule:	evenodd;clip-rule:	evenodd;fill:	#8A7956;}.style5{fill-rule:	evenodd;clip-rule:	evenodd;fill:	#F1DFBC;}.style6{fill-rule:	evenodd;clip-rule:	evenodd;fill:	#F4EFE6;}.style7{fill-rule:	evenodd;clip-rule:	evenodd;fill:	#cac7cc;}.female-arrow{fill-rule:	evenodd;clip-rule:	evenodd;fill:	#cac7cc;}.male-arrow{fill-rule:	evenodd;clip-rule:	evenodd;fill:	#cac7cc;}</style><g><path d="M103.86 541.82l-17.64 38.97l-19.37-39.24 C28.64 549.78 0 583.75 0 624.42c0 46.82 37.95 84.78 84.77 84.78s84.77-37.96 84.77-84.78 C169.55 584.16 141.48 550.48 103.86 541.82z" class="problem-circle"/><path d="M130.73 602.75l-0.46-2.22l-1.16-1.14c0 0 1.19-2.33 1-3.54c-0.13-0.8-1.15-1.24-1.35-2.03 c-0.06-0.23 0.19-0.51 0.05-0.7c-0.24-0.33-0.93 0.04-1.19-0.27c-0.58-0.68-0.19-2.68-0.19-2.68c-2.7 2.66-1.6 0.94-1.22-1.68 c-1.44 1.71-1.44 2.73-1.11-0.05c-2.22 3.54-1.44 0.87-1.6-1.81c-1.1 2.38-0.35 4.49-1.76 1.38c-0.59 2.22-0.46 1.61-1.52 0 c-0.23 2.29-0.43 1.77-2.25 1.08c0 0-0.8 0.36-0.89 0.73c-0.15 0.6 0.3 1.26 0.73 1.7c0.77 0.79 1.86 1.12 2.93 1.47 c-0.06 0-0.13 0-0.19 0c-1.99 0.02-4 0.35-5.89 0.96c-2.41 0.77-4.69 1.98-6.81 3.37c-2.98 1.94-4.99 5.29-8.19 6.85 c-1.03 0.5-2.26 1.04-3.37 0.73c-3.18-0.9-4.53-4.87-7.16-6.89c-2.42-1.86-4.92-3.82-7.84-4.75c-2.06-0.65-6.2-0.42-6.47-0.46 c-0.27-0.04-2.02-1.18-3.14-1.42c-1.37-0.29-2.84 0.36-4.21 0.04c-2.17-0.52-4.12-1.77-5.93-3.06c-1.31-0.93-2.59-1.99-3.48-3.33 c-1.4-2.12-1.09-5.16-2.72-7.11c-1.61-1.94-3.98-3.5-6.47-3.94c-0.32-0.05-0.6-0.07-0.86-0.07c-1.77 0-2.05 1.06-3.12 2.4 c-1.66 1.12-2.95-0.63-4.26 3.41c1.45-0.03 2.82-0.01 4.22 0.42c-1.06 1.85-0.8 2.81-0.8 5.04l1.19-1.19l0.61 2.26 c0.75-1.69 1.32-1.58 3.17-0.85c0 0-0.52 0.1-0.48 0.41c0.07 0.53 1.08 1.09 1.36 1.23c-0.19-0.09-0.71-0.32-0.93-0.16 c-0.44 0.33-0.27 1.12-0.13 1.65c0.35 1.37 1.73 2.27 2.35 3.54c0.11 0.23 0.25 0.73 0.25 0.73s-0.47-0.09-0.62 0.05 c-1.03 0.98-1.2 2.94-0.57 4.22c0.25 0.5 1.46 0.73 1.46 0.84s0.08 0.98-0.11 1.41c-0.28 0.65-0.78 1.27-1.41 1.57 c-0.3 0.15-1 0.05-1 0.05c-0.75 0.83 2.86 5.99 3.87 8.25c0.68 1.52-1.21 3.21-1.11 4.87c0.08 1.4 1.53 2.58 1.41 3.98 c-0.14 1.64-2.44 2.65-2.43 4.3c0 0.47 0.63 0.75 0.7 1.22c0.06 0.38 0.1 0.97-0.24 1.14c-0.13 0.07-0.41-0.19-0.41-0.19 s-1.05 1.2-1.11 1.94c-0.14 1.79 2.3 3.67 1.89 5.07c-0.07 0.25-0.64-0.09-0.78 0.13c-0.74 1.19 2.02 2.88 1.22 4.03 c-0.18 0.26-0.95 0.05-0.95 0.05s7.58 6.29 10.77 10.01c0.75 0.88 1.08 2.11 1.95 2.87c0.46 0.4 1.11 0.49 1.62 0.81 c0.89 0.56 2.49 1.94 2.49 1.94s0 0.04 0 0.04c0 0.07 0.36 5.41 0.11 8.08c-0.14 1.41-0.54 2.78-0.86 4.16 c-0.13 0.54-0.29 1.09-0.43 1.63c-0.7 3.16-1.39 3.57-4.71 5.89c0 0 1.27-0.31 1.92-0.38c0.5-0.05 1.04 0.17 1.52 0 c1.11-0.39 1.74-1.64 2.76-2.22c0.48-0.27 1-0.49 1.54-0.57c0.68-0.1 1.39-0.03 2.06 0.13c1.08 0.26 2.06 0.85 3.06 1.32 c1.19 0.56 4.04 2.68 5.11 1.95l2.17 1.48c0 0-0.45-1.1-0.84-1.54c-0.7-0.78-1.7-1.2-2.57-1.78c-1.52-1.01-3.24-1.74-4.6-2.95 c-0.32-0.29-0.81-1-0.81-1s3.31-0.18 4.71-0.86c0.36-0.17 0.61-0.52 0.95-0.73c0.61-0.36 1.95-0.87 1.95-0.87s-1.42 0.23-2.14 0.3 c-0.81 0.07-1.62 0.11-2.43 0.13c-1.49 0.04-3.28 0.52-4.44-0.41c-0.77-0.62-0.78-1.83-0.92-2.81c-0.38-2.64 0.21-8.01 0.21-8.01 s0.2-0.01 0.31-0.01l1.11-0.16c0.07-0.02 0.15-0.04 0.21-0.08c0.86-0.51 0.93-1.93 1.81-2.4c1.02-0.55 2.33-0.02 3.47-0.22 c1.48-0.26 2.84-1 4.32-1.27c0.97-0.18 2.95-0.21 2.95-0.21s0.24 1.38 0.48 2.03c0.06 0.16 0.1 0.18 0.14 0.18c0 0 0.01 0 0.01 0 l0.13-0.02c0.01 0 0.01 0 0.02 0c0.12 0.07 0.31 0.43 0.73 1.82c0.96 3.17 1.24 6.01 0.86 9.07c-1.12 1.12-2.83 2.73-4.81 4.57 l1.52-0.9c1.83 0.35 1.88-0.12 3.54-1.24c0.38 1.45 0.15 1.17 1.13 2.17c0.4 1.31-0.79 1.12 1.39 2.68 c0.28 0.7-0.04 1.51-0.19 2.24c-0.09 0.42-0.41 1.22-0.41 1.22s2.37-1.46 2.76-2.68c0.26-0.82-0.48-2.54-0.48-2.54 s1.21-0.69 1.89-0.76c1.7-0.16 4.9 0.97 5.04 0.97s3.46 0.03 5.06 0.6c0.73 0.26 1.97 1.24 1.97 1.24s-0.12-0.89-0.38-1.24 c-0.78-1.04-2.04-1.69-3.27-2.14c-0.83-0.3-1.77-0.09-2.63-0.3c-0.7-0.17-1.33-0.58-2.03-0.76c-0.64-0.16-1.38 0.01-1.98-0.28 c-0.54-0.26-1.29-1.22-1.29-1.22c1.16-0.74 2.17-1.35 2.89-2.57c-1.42-0.74-3 0.48-4.35 1.03c-1.08-3.74-2.15-7.44-2.51-11.34 c0-0.02-0.01-0.04-0.01-0.05c0 0 3.82-1.19 3.93-1.22s1.44-1.67 2.43-2.05c2.62-0.99 5.66 0.42 8.39-0.19 c3.31-0.74 6.74-1.9 9.31-4.12c3.54-3.07 5.81-7.52 7.47-11.9c1.42-3.76 2.13-7.89 1.94-11.91c-0.17-3.54-2.78-6.74-2.7-10.28 c0.01-0.64 0.1-1.29 0.26-1.92c-0.04 1.37 0.2 2.94 0.33 5.03c0 0 1.98-1.79 2.03-1.89s0.56-1.25 0.89-1.84 c0.53-0.94 1.5-1.66 1.76-2.71c0.25-1.03-0.3-3.17-0.3-3.17C128.17 601.53 129.3 602.07 130.73 602.75z" class="style1"/></g><g><path d="M703.98 541.8l-17.65 38.99l-19.36-39.22 c-38.16 8.27-66.75 42.21-66.75 82.84c0 46.82 37.95 84.78 84.77 84.78c46.82 0 84.77-37.96 84.77-84.78 C769.76 584.13 741.65 550.43 703.98 541.8z" class="problem-circle"/><path d="M710.82 661.26l-2.72-1.07l-2.13-5.09l0.72-6.41 c0.12-0.08 0.24-0.16 0.34-0.23c2.13-1.42 6.28-5.09 8.05-9.95s0-17.41-3.67-23.09s-13.38-7.22-15.75-9.59 c-2.37-2.37-1.18-5.92-5.45-12.44c-4.26-6.51-7.7-11.96-19.66-11.01s-12.32 11.84-12.32 11.84s-3.79 4.74-3.43 5.45 c0.35 0.71 4.14 1.18 4.14 1.18s-0.24 1.3 0.47 2.61s4.14 6.4 4.14 8.05c0 1.66-1.66 4.38-1.66 4.38s-5.43 8.76-5.33 13.5 c0.12 5.8 4.5 11.25 8.76 15.28c3.53 3.33 5.28 4.48 9.53 6.18l-3.49 4.36l-6.63 4.97l-6.28 1.07l-6.4 0.95l1.07 1.18l5.92 0.12 l-1.07 2.49l6.99-1.18l2.96-1.18l5.45 0.47l5.21-0.47l-1.78-1.42h2.01l-2.49-1.78l-3.43-1.3l1.42-2.61l5-3.98 c5.64 1.96 8.53 1.97 13.12 1.97c3.31 0 7.72-2.05 10.93-3.83l0.2 0.99l-1.07 7.7l-2.61 1.54l-8.53 0.83l-2.13 1.66l1.78 0.24 l8.17-0.24l0.71 3.2l4.15-2.37l2.84-1.18l2.72 0.95l6.75 0.24l1.66-1.54L710.82 661.26z" class="style2"/></g><g><g><g><g><ellipse cx="278.39" cy="223.63" rx="84.77" ry="84.78" class="style3"/></g></g><g><path d="M278.18 184.84c-10.6 0-27.23 26.16-27.23 47.49 s12.19 29.76 27.23 29.76c15.04 0 27.23-8.43 27.23-29.76S288.79 184.84 278.18 184.84z" class="style4"/><g><g><path d="M277.58 186.42c-9.06 0-24.2 27.02-24.2 46.47 c0 19.45 9.78 26.5 22.62 26.5c12.84 0 24.2-8.63 24.2-28.08C300.2 211.85 286.64 186.42 277.58 186.42z" class="style5"/></g></g><g><g><path d="M272.77 193.7c-3.48 0-5.57 3.35-8.52 8.42 c-2.96 5.07-4.86 8.93 0.08 8.93s1.77-2.6 5.56-8.93S276.25 193.7 272.77 193.7z" class="style6"/></g></g></g><g><g><path d="M146.47 212.63c-33.7 5.75-53.34 57.6-43.52 96.63 c10.35 41.14 15.44 23.11 15.44 23.11c6.3-4 8.9-15.44 17.77-17.27c-29.39-37.77-12.61-68.75 10.79-73.39l0.14 8.14l39.65-22.7 l-40.42-23.3L146.47 212.63z M280.22 133.1l23.3-40.42l-8.77 0.15c-6.13-34.48-62.27-61.11-96.63-43.52 c-2.99 3.78-6.19 24.38-8.48 31.75c40.21-27.21 71.36-11.04 76.02 12.26l-8.14 0.14L280.22 133.1z M390.12 383.15 c-4-6.3-15.44-8.9-17.27-17.77c-37.77 29.39-68.75 12.61-73.38-10.8l8.14-0.14l-22.69-39.65l-23.3 40.42l8.74-0.15 c5.74 33.71 57.62 53.34 96.65 43.52C408.14 388.24 390.12 383.15 390.12 383.15z M456.34 139.79 c-9.66-41.31-15.05-23.37-15.05-23.37c-6.36 3.89-9.16 15.29-18.05 16.97c28.76 38.26 11.46 68.96-12.02 73.2v-8.14 l-40.02 22.03l40.02 23.97v-8.74C445.02 230.54 465.51 178.99 456.34 139.79z" class="style7"/></g></g></g><path d="M646.24 218.68c0.07 1.91 0.11 3.83 0.11 5.76 c0 92.96-54.5 168.33-173.75 168.33h-50.91v-14.1l-56.79 28.4l56.79 26.09v-14.73h63.34c136.62 0 190.17-89.22 190.88-199.74 H646.24z" class="female-arrow"/><polygon points="699.42,517.56 699.42,218.58 670.71,218.58 670.71,517.56 657.74,517.56 686.13,574.35 712.22,517.56" class="male-arrow"/><path d="M469.91 0H260.09c3.37 0 6.58 0.08 9.64 0.22 C209.6 2.78 155.59 28.99 116.78 69.8l68.27-25.26l-18.07 54.65c29.81-26.78 69.22-43.08 112.44-43.08 c92.96 0 168.31 75.36 168.31 168.33s-75.35 168.33-168.31 168.33c-92.96 0-168.31-75.36-168.31-168.33 c0-34.02 10.1-65.67 27.45-92.14l10.24 10.24l30.66-91.99L89.96 83.69l8.29 8.29c-27.18 37.13-43.25 82.91-43.25 132.45 c0 84.85 47.09 158.7 116.56 196.85c35.18-4.72 73.28-3.4 103.75-2.94v0.07c-57.21 0.05-204.49-8.79-205.18 99.14H57.82 l28.39 56.79l26.09-56.79H98.85c0.84-81.7 135.71-68.4 176.47-68.59v-0.14c1.37 0.02 2.73 0.05 4.1 0.05 c40.23 0 77.97-10.59 110.62-29.13l-27.45-12.61l60.24-30.12v14.32h6.6c45.67-41.08 74.4-100.62 74.4-166.89 c0-86.81-49.29-162.1-121.4-199.43l106.15-0.05c127.26 0 170.7 67.54 171.96 193.72h26.18C684.48 84.58 642.94 0 469.91 0z" class="main-loop"/><g><g><g><path d="M673 173.37c-10.61 0-27.23 26.16-27.23 47.49 c0 21.33 12.19 29.76 27.23 29.76c15.04 0 27.23-8.43 27.23-29.76C700.23 199.53 683.61 173.37 673 173.37z" class="style4"/></g></g><g><g><path d="M672.41 174.96c-9.06 0-24.2 27.02-24.2 46.47 c0 19.45 9.78 26.5 22.62 26.5s24.2-8.63 24.2-28.08C695.02 200.39 681.46 174.96 672.41 174.96z" class="style5"/></g></g><g><g><path d="M667.59 182.24c-3.48 0-5.56 3.36-8.52 8.42 c-2.96 5.07-4.86 8.93 0.08 8.93s1.77-2.6 5.56-8.93C668.52 184.33 671.08 182.24 667.59 182.24z" class="style6"/></g></g><g><g><path d="M667.14 201.07l13.77-12.01c0 0-4.1-9.23-3.81-11.72 c-1.61-2.93-7.03-2.93-8.64-0.29c1.46 2.64 6.3 11.72 6.3 11.72l-11.28 12.16l6.88 10.11l-11.43 11.43l11.87 10.4l-8.06-10.69 l11.72-10.84L667.14 201.07z" class="style10"/></g></g><g><g><polygon points="682.96,205.61 679.45,202.39 680.18,198.87 676.66,191.55 673.88,194.04 678.71,199.46 677.4,203.71" class="style10"/></g></g><g><g><polygon points="679.01,222.31 673,219.97 675.05,215.87 671.68,212.5 668.61,215.28 672.12,217.04 670.95,220.99" class="style10"/></g></g></g></g></svg>