<svg xmlns="http://www.w3.org/2000/svg" xmlns:xlink="http://www.w3.org/1999/xlink" version="1.1" x="0px" y="0px" width="100%" height="100%" viewBox="0 0 279.818 193.106" xml:space="preserve"><style>.style0{clip-rule:	evenodd;fill-rule:	evenodd;}</style><path d="M274.573 21.427c-2.755 14.065-2.864 33.799-16.145 57.32 c-13.28 23.521-49.022 23.922-57.981 29.042c-8.961 5.12-12.257 15.956-12.257 15.956l-21.904 67.138h-20.944l-36.2-114.593 c-0.89-3.485-2.3-6.842-4.228-10.069c-1.929-3.226-4.358-6.119-7.287-8.678c-2.931-2.559-6.417-4.598-10.458-6.119 c-4.043-1.519-8.697-2.28-13.962-2.28c-8.9 0-16.819 1.985-23.753 5.952c-6.936 3.968-12.794 9.457-17.578 16.47 c-4.784 7.009-8.438 15.316-10.958 24.921c-2.522 9.606-3.783 20.082-3.783 31.43c0 6.97 0.8 13.39 2.39 19.25 c1.594 5.86 3.95 10.92 7.07 15.187c3.115 4.27 7.03 7.58 11.74 9.958c4.709 2.37 10.14 3.56 16.3 3.56 c5.488 0 10.513-0.907 15.075-2.726c4.562-1.816 8.733-4.228 12.516-7.231s7.193-6.453 10.236-10.347 c3.04-3.894 5.71-7.917 8.01-12.071l13.017 9.901c-2.967 5.415-6.305 10.533-10.013 15.354c-3.71 4.822-7.955 9.031-12.739 12.63 c-4.784 3.598-10.235 6.452-16.354 8.566c-6.119 2.113-13.073 3.17-20.86 3.17c-8.975 0-16.838-1.706-23.586-5.117 c-6.75-3.411-12.333-8.066-16.744-13.963c-4.414-5.896-7.715-12.831-9.902-20.805C1.093 145.25 0 136.7 0 127.58 c0-9.196 0.815-17.949 2.448-26.257c1.63-8.306 3.967-16.001 7.009-23.085c3.041-7.082 6.749-13.498 11.125-19.247 c4.375-5.747 9.307-10.625 14.797-14.63c5.488-4.005 11.477-7.101 17.968-9.29c6.489-2.187 13.406-3.282 20.749-3.282 c7.861 0 14.74 1.09 20.64 3.282c5.896 2.19 10.94 5.06 15.13 8.622c4.189 3.56 7.55 7.64 10.07 12.24 c2.521 4.6 4.38 9.35 5.56 14.24l23.289 74.621l3.066 9.771l2.8 8.919l2.733 8.71l2.337-8.678l2.447-8.789l2.893-10.236 l6.937-21.835c0 0 3.427-13.095 6.574-19.39c3.148-6.295 9.107-18.525 20.17-33.96c9.948-13.881 22.177-25.583 20.701-26.862 c-0.983-0.984-14.036 0.805-29.971 18.215c-15.935 16.131-22.802 36.018-23.982 36.116c-1.181 0.099-4.357-19.104 1.082-34.623 c5.44-15.52 16.103-35.059 32.263-42.099s39.64-11.017 49.278-12.688c9.64-1.672 29.017-8.558 31.181-7.18 C281.458 1.56 276.34 12.48 274.57 21.427z" class="style0"/></svg>